<?xml version="1.0" encoding="UTF-8"?>
<svg version="1.1" xmlns="http://www.w3.org/2000/svg" width="1024" height="1024">
<path d="M0 0 C337.92 0 675.84 0 1024 0 C1024 337.92 1024 675.84 1024 1024 C686.08 1024 348.16 1024 0 1024 C0 686.08 0 348.16 0 0 Z " fill="none" transform="translate(0,0)"/>
<path d="M0 0 C7.82494216 3.68529534 14.72999802 8.81593552 20.83984375 14.92578125 C22.68637497 15.30626148 22.68637497 15.30626148 24.8203125 15.3828125 C25.64426514 15.44082031 26.46821777 15.49882812 27.31713867 15.55859375 C28.21150635 15.61789062 29.10587402 15.6771875 30.02734375 15.73828125 C38.33884626 16.40244407 46.38088744 17.64932155 54.52734375 19.42578125 C55.52467529 19.63952393 56.52200684 19.8532666 57.54956055 20.07348633 C64.57633284 21.66227034 64.57633284 21.66227034 66.83984375 23.92578125 C66.04320312 24.48845703 66.04320312 24.48845703 65.23046875 25.0625 C57.04450585 30.99284174 52.17956659 37.41890449 50.3671875 47.57421875 C50.1307514 49.68549323 49.97662211 51.80571671 49.83984375 53.92578125 C50.67128906 53.42046875 51.50273438 52.91515625 52.359375 52.39453125 C53.44605469 51.74484375 54.53273438 51.09515625 55.65234375 50.42578125 C56.73128906 49.77609375 57.81023437 49.12640625 58.921875 48.45703125 C61.83984375 46.92578125 61.83984375 46.92578125 64.83984375 46.92578125 C64.65421875 45.44078125 64.65421875 45.44078125 64.46484375 43.92578125 C64.46484375 38.03505429 68.58661851 34.36966401 72.36328125 30.2734375 C73.83984375 28.86328125 73.83984375 28.86328125 76.83984375 26.92578125 C81.00696695 27.27185471 84.36280553 28.41181944 88.12109375 30.19140625 C89.11729736 30.66280029 90.11350098 31.13419434 91.13989258 31.61987305 C92.19587646 32.13332275 93.25186035 32.64677246 94.33984375 33.17578125 C95.43901123 33.70792236 96.53817871 34.24006348 97.6706543 34.78833008 C113.2362559 42.44649429 128.33150652 50.98949624 141.83984375 61.92578125 C142.81308594 62.663125 143.78632812 63.40046875 144.7890625 64.16015625 C145.75457031 64.9078125 146.72007812 65.65546875 147.71484375 66.42578125 C148.55789063 67.07546875 149.4009375 67.72515625 150.26953125 68.39453125 C156.97478489 74.99788134 160.08060055 82.50681207 162.83984375 91.36328125 C166.1022869 101.79342261 170.02684666 110.83967284 178.15234375 118.36328125 C182.67500843 122.67823723 186.69569126 127.21699019 190.5859375 132.109375 C192.98319996 135.1049144 195.47085072 138.0104802 197.96484375 140.92578125 C207.09310358 151.89683532 207.09310358 151.89683532 209.83984375 157.92578125 C209.515625 160.23828125 209.515625 160.23828125 208.83984375 161.92578125 C205.41787127 161.51514455 202.30868585 161.10259035 199.07421875 159.8828125 C194.13992053 158.42278465 189.39982296 158.93979408 184.30078125 159.1484375 C180.67217853 158.91499466 179.40028394 158.41473706 176.83984375 155.92578125 C177.79451939 157.55293281 178.75371223 159.17743471 179.71484375 160.80078125 C180.24851562 161.70570313 180.7821875 162.610625 181.33203125 163.54296875 C182.75959727 165.99181407 182.75959727 165.99181407 184.83984375 167.92578125 C186.32484375 166.93578125 186.32484375 166.93578125 187.83984375 165.92578125 C191.05670958 165.59069106 193.02072262 165.397316 195.77734375 167.17578125 C196.83984375 168.92578125 196.83984375 168.92578125 196.77734375 170.73828125 C195.83984375 172.92578125 195.83984375 172.92578125 193.77734375 175.86328125 C191.78678831 179.00964308 191.41467832 180.31187509 191.83984375 183.92578125 C196.43290871 182.43978965 199.2755362 180.07563443 202.83984375 176.92578125 C199.53599054 187.36225213 194.57487834 197.05880578 186.83984375 204.92578125 C185.84984375 205.25578125 184.85984375 205.58578125 183.83984375 205.92578125 C183.125 204.28515625 183.125 204.28515625 182.83984375 201.92578125 C184.2734375 199.12890625 184.2734375 199.12890625 186.27734375 196.17578125 C186.93605469 195.1909375 187.59476563 194.20609375 188.2734375 193.19140625 C189.04880859 192.06992187 189.04880859 192.06992187 189.83984375 190.92578125 C189.35515625 191.3846875 188.87046875 191.84359375 188.37109375 192.31640625 C183.83043529 196.47285515 179.51145749 199.53713754 173.83984375 201.92578125 C172.63908203 202.43818359 172.63908203 202.43818359 171.4140625 202.9609375 C161.0756858 206.83586777 149.02618087 208.00287263 138.78613281 203.61914062 C135.44863741 202.09909321 132.13947137 200.52611402 128.83984375 198.92578125 C119.52023681 194.5139073 107.85481276 192.53886972 97.83203125 195.94921875 C97.17460938 196.27148438 96.5171875 196.59375 95.83984375 196.92578125 C97.45439453 197.05533203 97.45439453 197.05533203 99.1015625 197.1875 C112.51568916 198.41580379 123.26932227 202.34149233 135.18359375 208.69140625 C148.26994518 214.77271074 166.91044694 209.40500717 179.83984375 204.92578125 C179.66020078 217.17416557 178.25638642 225.51114054 169.58984375 234.73828125 C165.53864378 238.55237086 161.15074412 242.07016546 155.83984375 243.92578125 C154.84984375 243.59578125 153.85984375 243.26578125 152.83984375 242.92578125 C153.16984375 241.93578125 153.49984375 240.94578125 153.83984375 239.92578125 C153.33195313 240.19132813 152.8240625 240.456875 152.30078125 240.73046875 C145.68138182 244.12693962 140.43426163 246.22955797 132.83984375 245.92578125 C135.31484375 241.47078125 135.31484375 241.47078125 137.83984375 236.92578125 C137.16179687 237.20292969 136.48375 237.48007812 135.78515625 237.765625 C129.34947588 240.27037041 123.73339444 241.52615512 116.83984375 241.92578125 C118.15984375 238.95578125 119.47984375 235.98578125 120.83984375 232.92578125 C119.84984375 232.92578125 118.85984375 232.92578125 117.83984375 232.92578125 C116.89953277 231.48173225 115.96314409 230.03489417 115.05200195 228.57226562 C111.17454698 223.30548691 104.99477933 220.84269635 98.90234375 219.11328125 C98.16725586 218.90388916 97.43216797 218.69449707 96.67480469 218.47875977 C81.95989795 214.61444533 68.28578357 216.78832338 54.83984375 223.86328125 C38.15251478 234.23767889 28.03195822 250.15429047 22.83984375 268.92578125 C21.98512749 273.24411209 21.32670365 277.5513087 20.83984375 281.92578125 C20.17984375 281.92578125 19.51984375 281.92578125 18.83984375 281.92578125 C18.38544922 281.07306641 18.38544922 281.07306641 17.921875 280.203125 C17.50292969 279.43097656 17.08398438 278.65882813 16.65234375 277.86328125 C16.04326172 276.73212891 16.04326172 276.73212891 15.421875 275.578125 C13.41255731 272.20941708 11.14899741 269.09650148 8.83984375 265.92578125 C8.49953125 266.96734375 8.15921875 268.00890625 7.80859375 269.08203125 C-2.37030042 299.47927686 -20.46278995 326.7084995 -48.16015625 343.92578125 C-45.16015625 334.92578125 -45.16015625 334.92578125 -44.078125 332.1015625 C-41.55076096 323.3579584 -42.77622163 313.02994127 -44.2578125 304.171875 C-44.38516785 303.38866882 -44.51252319 302.60546265 -44.64373779 301.79852295 C-46.91382835 288.10452718 -49.4719956 274.456791 -51.97186279 260.80328369 C-52.92003542 255.62446208 -53.86395371 250.44487048 -54.80712891 245.26513672 C-57.2254385 231.9876508 -59.64571131 218.71054232 -62.08764648 205.43737793 C-62.76117842 201.77188478 -63.43043895 198.10562317 -64.0982666 194.43908691 C-64.52160282 192.12487259 -64.95159555 189.81196224 -65.38183594 187.49902344 C-65.62865996 186.14395387 -65.87511023 184.78881614 -66.12109375 183.43359375 C-66.32524902 182.3264502 -66.5294043 181.21930664 -66.73974609 180.07861328 C-67.20057505 176.62266374 -67.38431893 173.40735686 -67.16015625 169.92578125 C-64.84765625 167.36328125 -64.84765625 167.36328125 -62.16015625 164.92578125 C-58.70290967 159.79951907 -58.3348452 154.92551442 -59.16015625 148.92578125 C-60.99113999 142.97767024 -64.13002912 139.44687024 -69.16015625 135.92578125 C-70.16643066 135.60697998 -71.17270508 135.28817871 -72.20947266 134.9597168 C-75.59026309 132.62930433 -75.72008883 132.05098233 -76.57568359 128.21411133 C-76.91047051 126.21232452 -77.21536538 124.20539316 -77.49609375 122.1953125 C-77.66517242 121.13092453 -77.8342511 120.06653656 -78.00845337 118.96989441 C-78.54254573 115.56270563 -79.0384407 112.15109695 -79.53515625 108.73828125 C-79.89090315 106.45862018 -80.24895014 104.17931677 -80.609375 101.90039062 C-80.9486591 99.70734658 -81.28596287 97.51399506 -81.62109375 95.3203125 C-81.77726166 94.29919876 -81.93342957 93.27808502 -82.09432983 92.22602844 C-82.88978057 86.74187891 -83.5441525 81.46663276 -83.16015625 75.92578125 C-81.36356484 73.65800258 -79.88762346 72.12050992 -77.72265625 70.30078125 C-68.84866485 62.118389 -63.16155243 53.13436727 -59.09765625 41.80078125 C-56.30649846 34.20860368 -56.30649846 34.20860368 -52.59765625 32.23828125 C-50.57421875 31.55078125 -50.57421875 31.55078125 -48.16015625 30.92578125 C-47.09539062 30.57515625 -46.030625 30.22453125 -44.93359375 29.86328125 C-40.04976862 28.27576247 -35.2142497 26.85408413 -30.16015625 25.92578125 C-30.00160156 25.00796875 -29.84304688 24.09015625 -29.6796875 23.14453125 C-28.29018499 15.83620867 -26.98973275 9.70178773 -22.16015625 3.92578125 C-21.33515625 2.93578125 -20.51015625 1.94578125 -19.66015625 0.92578125 C-14.12367705 -3.2336762 -6.15130508 -2.09098751 0 0 Z " fill="#030303" transform="translate(507.16015625,365.07421875)"/>
<path d="M0 0 C12.55929558 0.55819091 23.23104662 10.11977601 31.6328125 18.68359375 C45.75602838 34.59920553 52.02199357 53.4734293 51.17041016 74.59521484 C49.83918502 93.38112832 41.00619428 109.72364738 28 123 C26.62341417 124.0669731 25.23091962 125.11430424 23.8125 126.125 C21.72179752 127.80672001 21.06149943 128.58316498 20.66381836 131.27859497 C20.79569984 138.19251296 21.55799275 144.80972575 22.75 151.6171875 C22.92756836 152.67737091 23.10513672 153.73755432 23.28808594 154.8298645 C23.85031315 158.17972962 24.42436229 161.52741561 25 164.875 C25.5739015 168.244264 26.14519272 171.61392621 26.71191406 174.98440552 C27.06346402 177.07199256 27.41939525 179.15884781 27.78027344 181.24484253 C27.94043945 182.18997711 28.10060547 183.13511169 28.265625 184.10888672 C28.47880371 185.34818436 28.47880371 185.34818436 28.69628906 186.61251831 C29.01275072 189.10023382 29.0523977 191.49497892 29 194 C23.61509359 194.91657981 18.45769811 195.11138159 13 195 C11.50166908 187.48564342 10.11720398 179.98341717 9.05078125 172.39453125 C8.88674805 171.24710449 8.72271484 170.09967773 8.55371094 168.91748047 C8.23088788 166.63044274 7.91997315 164.34168657 7.62207031 162.05126953 C6.73400446 155.81697218 5.7404979 151.12821557 2 146 C-2.93048241 143.06067395 -7.39296727 142.22585347 -13 143 C-18.60150643 144.51905259 -21.08208622 146.79713463 -24.15234375 151.4765625 C-26.70405885 159.07291252 -24.40390668 167.59598911 -23.0625 175.25 C-21.61228701 183.85985146 -20.44181473 192.274159 -20 201 C-25.28 201.66 -30.56 202.32 -36 203 C-36.32613281 200.48890625 -36.65226562 197.9778125 -36.98828125 195.390625 C-38.20980517 186.00415771 -39.45176693 176.62045977 -40.70257568 167.237854 C-40.96480558 165.26480676 -41.22408659 163.29136807 -41.48291016 161.31787109 C-41.85184655 158.52261994 -42.23461357 155.72982064 -42.625 152.9375 C-42.77255737 151.7923291 -42.77255737 151.7923291 -42.9230957 150.62402344 C-43.52974532 146.43262607 -44.22228569 143.24631246 -47 140 C-49.59760545 138.43491084 -52.32942251 137.28947363 -55.125 136.125 C-61.87169301 133.13796866 -67.44539835 129.91505263 -73 125 C-73.57363281 124.57847656 -74.14726562 124.15695312 -74.73828125 123.72265625 C-87.05434593 114.40774756 -95.54049044 97.49821501 -98.52734375 82.70703125 C-101.1843548 61.86815945 -97.34748748 42.14944059 -84.57617188 25.09912109 C-76.01845421 14.56150537 -76.01845421 14.56150537 -71 14 C-69.52378693 17.4200206 -68.59344719 20.58867258 -67.99438477 24.26171875 C-67.73885582 25.79856323 -67.73885582 25.79856323 -67.47816467 27.36645508 C-67.30103439 28.4623999 -67.12390411 29.55834473 -66.94140625 30.6875 C-66.55169321 33.01827281 -66.16171103 35.34900063 -65.77148438 37.6796875 C-65.1642767 41.34605122 -64.5603934 45.01290497 -63.96166992 48.68066406 C-63.38065927 52.22618465 -62.78681488 55.76937315 -62.19140625 59.3125 C-62.0163002 60.40844482 -61.84119415 61.50438965 -61.66078186 62.63354492 C-61.48727707 63.65810791 -61.31377228 64.6826709 -61.13500977 65.73828125 C-60.98781998 66.63587158 -60.84063019 67.53346191 -60.6889801 68.45825195 C-59.89805137 71.37610335 -58.71284069 73.51780005 -57 76 C-55.25924162 77.0450269 -55.25924162 77.0450269 -53.26171875 77.44140625 C-52.53041748 77.63065674 -51.79911621 77.81990723 -51.0456543 78.01489258 C-49.87836792 78.28595825 -49.87836792 78.28595825 -48.6875 78.5625 C-47.06228376 78.97310336 -45.437286 79.38457241 -43.8125 79.796875 C-42.59820312 80.09561523 -42.59820312 80.09561523 -41.359375 80.40039062 C-36.83574435 81.55002192 -32.38507458 82.95050912 -27.91796875 84.30078125 C-23.90510031 85.26236552 -21.28014863 85.74598872 -17.61572266 83.6105957 C-16.8066748 82.97210693 -15.99762695 82.33361816 -15.1640625 81.67578125 C-14.26429688 80.97646484 -13.36453125 80.27714844 -12.4375 79.55664062 C-11.509375 78.81607422 -10.58125 78.07550781 -9.625 77.3125 C-7.78450473 75.87026316 -5.94337199 74.42883939 -4.1015625 72.98828125 C-3.23047852 72.30072754 -2.35939453 71.61317383 -1.46191406 70.90478516 C0.68905684 69.24057701 2.86895122 67.65712789 5.1015625 66.10546875 C8.03450114 64.31501044 8.03450114 64.31501044 9 62 C9.3507164 55.4808282 8.33171134 49.55707173 7.03125 43.18359375 C6.73160339 41.66065453 6.73160339 41.66065453 6.42590332 40.10694885 C5.79107455 36.88233545 5.14662338 33.65976749 4.5 30.4375 C3.85371226 27.21160366 3.20979398 23.98534049 2.57409668 20.75733948 C2.17973489 18.75490367 1.7793956 16.7536329 1.37219238 14.75376892 C0.38302694 9.73278126 -0.22233463 5.11766671 0 0 Z " fill="#EACE47" transform="translate(394,308)"/>
<path d="M0 0 C4.33858846 21.96926842 8.37098969 43.98374805 12.26342773 66.03601074 C13.39625265 72.45111281 14.53345329 78.86544061 15.67063332 85.2797718 C16.05861619 87.47049477 16.44540211 89.66142605 16.83195496 91.85240173 C17.07504943 93.22639198 17.3181573 94.60037986 17.5612793 95.97436523 C17.67790767 96.637434 17.79453604 97.30050276 17.9146986 97.98366451 C18.52513538 101.42936149 19.16510671 104.86645323 19.84902954 108.29837036 C19.98837071 109.0071058 20.12771189 109.71584124 20.27127552 110.4460535 C20.6571332 112.3974717 21.05156663 114.34718868 21.4466095 116.29676819 C22.04451441 120.29788581 22.09408049 123.96235141 22 128 C16.77094683 128.77160475 11.54175953 129.54229531 6.3125 130.3125 C5.53735046 130.42671295 4.76220093 130.5409259 3.96356201 130.65859985 C-6.14837245 132.14796369 -16.26233892 133.61944617 -26.38427734 135.03955078 C-31.72357662 135.79539224 -37.03399794 136.65764612 -42.33203125 137.66796875 C-45.90690412 138.11286508 -49.39696235 138.01950565 -53 138 C-53.10022461 136.94538574 -53.20044922 135.89077148 -53.30371094 134.80419922 C-55.09557729 116.03751163 -56.96758994 97.31238295 -59.56494141 78.63745117 C-61.05411951 67.86484574 -62.22419452 57.07031947 -63.34375 46.25390625 C-64.0056461 39.85910478 -64.76421687 33.47961737 -65.5703125 27.1015625 C-66.26371892 21.08878474 -66.59384719 15.03743521 -67 9 C-28.56018864 3.04282644 -28.56018864 3.04282644 -15.5 1.125 C-14.31434448 0.94553833 -14.31434448 0.94553833 -13.10473633 0.76245117 C-8.69499942 0.12633254 -4.4496569 -0.03803696 0 0 Z " fill="#010101" transform="translate(430,537)"/>
<path d="M0 0 C0.78068848 0.12890625 1.56137695 0.2578125 2.36572266 0.390625 C58.75496846 10.03630078 108.272083 41.3107032 141.50390625 87.8671875 C163.32773875 119.32681224 178.50792863 158.47550056 178.0625 197.125 C178.05798828 197.89070312 178.05347656 198.65640625 178.04882812 199.4453125 C178.03725564 201.29691037 178.01933155 203.14846688 178 205 C174.13708956 201.24321347 170.60426087 197.29960719 167.125 193.1875 C166.06544141 191.94242127 165.00554737 190.69762791 163.9453125 189.453125 C163.18589355 188.56077148 163.18589355 188.56077148 162.41113281 187.65039062 C160.13642522 184.99000597 157.82239818 182.36483961 155.5 179.74609375 C155.005 179.16988281 154.51 178.59367188 154 178 C153.31550781 177.24976563 152.63101562 176.49953125 151.92578125 175.7265625 C149.62215155 172.46503404 149.00649282 169.83881061 148.1875 165.9375 C142.60734425 141.86279507 132.16570391 118.60232475 117 99 C116.33613281 98.12859375 115.67226563 97.2571875 114.98828125 96.359375 C110.2743918 90.32115118 105.21701232 84.6062033 100 79 C99.08154297 78.00033203 99.08154297 78.00033203 98.14453125 76.98046875 C73.71019157 51.39995535 37.87141482 33.17414267 3.22705078 27.39355469 C1.70776668 27.12507344 0.19515432 26.81653127 -1.30908203 26.47363281 C-10.5516355 24.47283308 -19.83862657 24.60442239 -29.25 24.625 C-30.13817413 24.62521149 -31.02634827 24.62542297 -31.94143677 24.62564087 C-50.95842789 24.67084036 -68.46915059 27.13526073 -86.6015625 32.94921875 C-89.40537282 33.81614401 -92.11335716 34.49677299 -95 35 C-95.67546875 34.04738281 -96.3509375 33.09476562 -97.046875 32.11328125 C-97.9478398 30.8462995 -98.84888577 29.57937548 -99.75 28.3125 C-100.41515625 27.37374023 -100.41515625 27.37374023 -101.09375 26.41601562 C-101.53203125 25.80048828 -101.9703125 25.18496094 -102.421875 24.55078125 C-103.06866211 23.64126709 -103.06866211 23.64126709 -103.72851562 22.71337891 C-104.8783721 21.16389873 -106.12982597 19.6911003 -107.390625 18.23046875 C-107.92171875 17.49441406 -108.4528125 16.75835937 -109 16 C-108 13 -108 13 -106.41796875 12.04296875 C-91.99873158 6.51264836 -77.24652871 2.40315849 -62 0 C-60.90945313 -0.20496094 -59.81890625 -0.40992188 -58.6953125 -0.62109375 C-39.67125746 -3.80641474 -19.01066811 -3.16486128 0 0 Z " fill="#EBCF4A" transform="translate(540,303)"/>
<path d="M0 0 C3.87512601 11.62537802 -9.48169391 34.18722483 -14.70458984 44.83911133 C-33.66114101 82.17391142 -63.02824389 111.88334889 -99 133 C-99.57975586 133.34482422 -100.15951172 133.68964844 -100.75683594 134.04492188 C-143.15131564 158.97141825 -197.08640316 166.99656321 -245 156 C-245 155.34 -245 154.68 -245 154 C-243.42283761 152.74966403 -241.78498678 151.57557958 -240.125 150.4375 C-230.64817996 143.82869371 -230.64817996 143.82869371 -222.86743164 135.40161133 C-219.89102595 133.16765328 -216.60522725 133.57951278 -213.02734375 133.59375 C-212.23082901 133.58291382 -211.43431427 133.57207764 -210.61366272 133.56091309 C-208.0548618 133.52663974 -205.49649983 133.51109776 -202.9375 133.5 C-152.34446839 133.27354486 -106.64257111 113.92891559 -70.4375 78.5703125 C-67.05202963 75.14754057 -64.05738228 71.50041606 -61.125 67.6875 C-60.6403125 67.06810547 -60.155625 66.44871094 -59.65625 65.81054688 C-57.09709421 62.5558508 -57.09709421 62.5558508 -55 59 C-53.12854051 58.52362849 -51.2553729 58.0531542 -49.375 57.61328125 C-38.19845924 54.72723372 -29.38985896 48.9120656 -22.50390625 39.59765625 C-19.19443377 33.8812947 -17.38597101 27.31693835 -16.625 20.77734375 C-16 18 -16 18 -14.3984375 16.453125 C-13.73070312 16.05609375 -13.06296875 15.6590625 -12.375 15.25 C-6.78229183 11.46106618 -3.00537091 6.01074182 0 0 Z " fill="#EDD049" transform="translate(711,560)"/>
<path d="M0 0 C0.66644531 0.43570312 1.33289063 0.87140625 2.01953125 1.3203125 C8.5287377 5.52626128 15.14755192 9.38158931 22 13 C21.72285156 14.24394531 21.44570313 15.48789062 21.16015625 16.76953125 C19.90789155 22.40637739 18.66958938 28.04621242 17.4375 33.6875 C17.21642578 34.69361328 16.99535156 35.69972656 16.76757812 36.73632812 C16.55423828 37.71408203 16.34089844 38.69183594 16.12109375 39.69921875 C15.83383423 41.01152466 15.83383423 41.01152466 15.54077148 42.3503418 C14.36581276 48.10737434 13.82949009 53.60855787 13.796875 59.484375 C13.78832489 60.70607391 13.78832489 60.70607391 13.77960205 61.95245361 C13.77018309 63.67711098 13.76363045 65.40178609 13.75976562 67.12646484 C13.75018411 69.7005401 13.71918467 72.27377225 13.6875 74.84765625 C13.58571617 90.49518017 15.82522213 105.25948576 20.125 120.3125 C20.4235791 121.36228027 20.7221582 122.41206055 21.02978516 123.49365234 C25.63004844 139.09219216 32.03287314 158.52875545 43.52050781 170.59741211 C49.54250348 177.2265675 49.58620244 185.42769198 50.375 193.9375 C50.53815324 195.46312873 50.7035023 196.98852431 50.87109375 198.51367188 C51.63489772 205.68507231 52.21355152 212.78031605 52 220 C46.53125 216.2890625 46.53125 216.2890625 45 215 C45 214.34 45 213.68 45 213 C44.34 213 43.68 213 43 213 C31.33231443 201.6110193 21.91478026 187.16229155 14 173 C13.66162109 172.4107373 13.32324219 171.82147461 12.97460938 171.21435547 C-4.64237559 140.50252748 -12.22952153 106.81391639 -12.125 71.625 C-12.12886719 70.33078125 -12.13273437 69.0365625 -12.13671875 67.703125 C-12.12278343 53.73992997 -11.25378731 40.4548155 -8.1875 26.8125 C-7.93935547 25.64525391 -7.69121094 24.47800781 -7.43554688 23.27539062 C-2.99541949 2.99541949 -2.99541949 2.99541949 0 0 Z " fill="#ECCF49" transform="translate(314,440)"/>
<path d="M0 0 C0.66 0.33 1.32 0.66 2 1 C1.38125 1.62261719 1.38125 1.62261719 0.75 2.2578125 C-7.4281865 10.98364542 -13.06343086 21.76005917 -17 33 C-14.36 33.33 -11.72 33.66 -9 34 C-10.2640523 37.94291543 -11.704904 41.71303073 -13.375 45.5 C-18.92425757 58.68359121 -21.17604572 71.09626637 -21.125 85.3125 C-21.12886719 86.40884766 -21.13273437 87.50519531 -21.13671875 88.63476562 C-21.13478516 90.20194336 -21.13478516 90.20194336 -21.1328125 91.80078125 C-21.13168457 92.75122314 -21.13055664 93.70166504 -21.12939453 94.6809082 C-21.15236234 97.02585176 -21.15236234 97.02585176 -20 99 C-19.63648438 98.49210938 -19.27296875 97.98421875 -18.8984375 97.4609375 C-15.56912546 92.90234101 -12.18231271 88.80210246 -8 85 C-7.34 85 -6.68 85 -6 85 C-6.04640625 86.29550781 -6.0928125 87.59101562 -6.140625 88.92578125 C-6.41343948 100.18151012 -5.54515043 110.34787122 -2.875 121.2890625 C-2 125 -2 125 -2 128 C-0.94039062 127.75830078 -0.94039062 127.75830078 0.140625 127.51171875 C13.9266592 125.04454596 28.06997667 128.68421657 39.75 136.25 C40.4925 136.8275 41.235 137.405 42 138 C42 138.33 42 138.66 42 139 C40.76765625 139.09796875 39.5353125 139.1959375 38.265625 139.296875 C28.70830236 140.12887191 19.90114612 141.18522309 11 145 C9.99582031 145.42152344 8.99164062 145.84304688 7.95703125 146.27734375 C0.47065891 149.70266747 -5.18397905 154.20971365 -11 160 C-18.21082478 153.44470475 -22.95697084 145.8849948 -26.375 136.8125 C-26.62564209 136.14758545 -26.87628418 135.4826709 -27.13452148 134.79760742 C-28.65585182 130.5343876 -29.49823129 126.4984148 -30 122 C-31.65 125.3 -33.3 128.6 -35 132 C-37.06365451 128.90451823 -37.70846051 126.71107157 -38.5625 123.125 C-38.81128906 122.09632813 -39.06007813 121.06765625 -39.31640625 120.0078125 C-39.54199219 119.01523437 -39.76757812 118.02265625 -40 117 C-40.17708496 116.23582764 -40.35416992 115.47165527 -40.53662109 114.68432617 C-41.04306421 111.7505316 -41.11292044 109.01948534 -41.09765625 106.04296875 C-41.09443359 104.93115234 -41.09121094 103.81933594 -41.08789062 102.67382812 C-41.07951172 101.52333984 -41.07113281 100.37285156 -41.0625 99.1875 C-41.05798828 98.01767578 -41.05347656 96.84785156 -41.04882812 95.64257812 C-41.0370693 92.76166642 -41.02063426 89.88085956 -41 87 C-45.53303485 93.77638327 -49.30510376 100.28355798 -52 108 C-52.33 108 -52.66 108 -53 108 C-53.82931834 78.52092283 -53.82931834 78.52092283 -49 67 C-48.62617188 66.05898438 -48.25234375 65.11796875 -47.8671875 64.1484375 C-43.88391648 54.78379371 -38.90195502 45.52940548 -32 38 C-35.96 38.99 -39.92 39.98 -44 41 C-38.64159101 22.45990491 -18.06447753 9.70918376 -2.14453125 0.8984375 C-1.43683594 0.60195313 -0.72914063 0.30546875 0 0 Z " fill="#F9F9F9" transform="translate(523,435)"/>
<path d="M0 0 C0.33 0 0.66 0 1 0 C4.14511341 15.80045068 6.64518235 30.26967812 -1.73046875 45.0546875 C-5.94337242 51.26052165 -10.43498433 55.41797097 -17 59 C-18.051875 59.598125 -19.10375 60.19625 -20.1875 60.8125 C-28.61733446 64.37176344 -38.88458834 64.04391957 -47.4609375 61.08984375 C-58.70679907 56.26277394 -65.15246978 49.18205641 -70.875 38.5 C-73.48544992 30.37860026 -74.33200147 22.50292651 -74 14 C-63.49077894 12.30651409 -52.97606723 10.681229 -42.43432617 9.20263672 C-37.25579632 8.47377492 -32.0834959 7.71290239 -26.9140625 6.921875 C-25.70492187 6.73810303 -24.49578125 6.55433105 -23.25 6.36499023 C-20.8821704 6.00410672 -18.51494797 5.63921028 -16.1484375 5.26977539 C-10.70480612 4.44379785 -5.50730701 3.76986757 0 4 C0 2.68 0 1.36 0 0 Z " fill="#ECCD48" transform="translate(452,661)"/>
<path d="M0 0 C4.60565631 1.35950096 6.3811003 4.73351422 8.59375 8.765625 C9.25375 9.755625 9.91375 10.745625 10.59375 11.765625 C9.706875 12.384375 8.82 13.003125 7.90625 13.640625 C0.71060993 19.68855256 -1.2760074 29.00531327 -2.65625 37.890625 C-2.89601563 39.29634766 -2.89601563 39.29634766 -3.140625 40.73046875 C-7.47128676 62.96241906 -7.47128676 62.96241906 -1.40625 83.765625 C2.7574721 89.52104846 7.35787596 93.39663331 13.59375 96.765625 C12.93375 95.92 12.27375 95.074375 11.59375 94.203125 C9.34102595 90.33125553 9.24197304 88.16283703 9.59375 83.765625 C17.07027526 80.83643343 27.47294028 79.65138174 35.08203125 82.79296875 C38.96975953 85.90487542 41.25736 90.21019437 43.453125 94.6171875 C44.64220697 96.8568967 46.02729635 98.77604881 47.59375 100.765625 C42.18309911 104.82361317 42.18309911 104.82361317 39.6484375 104.57421875 C37.24057774 103.62663896 35.51995397 102.33998082 33.46875 100.765625 C28.49478437 97.30619466 24.58652729 96.93443563 18.59375 96.765625 C19.58375 101.055625 20.57375 105.345625 21.59375 109.765625 C13.35476485 110.53204222 4.8074785 107.66209149 -2.40625 103.765625 C-0.8157668 110.99509411 1.04680106 117.26288528 4.59375 123.765625 C4.92375 124.755625 5.25375 125.745625 5.59375 126.765625 C-3.55066074 124.65537637 -9.96761102 117.99261762 -14.96875 110.38671875 C-19.41980174 102.27080648 -20.549564 93.27931207 -20.53125 84.140625 C-20.53382813 82.84898437 -20.53640625 81.55734375 -20.5390625 80.2265625 C-20.4345603 77.50335815 -20.22839646 75.33646394 -19.40625 72.765625 C-20.128125 72.6625 -20.85 72.559375 -21.59375 72.453125 C-24.87752745 71.65042385 -26.85725633 71.02330511 -29.40625 68.765625 C-30.01333854 62.30191756 -28.60474796 57.3811196 -26.28125 51.390625 C-25.96865234 50.55716553 -25.65605469 49.72370605 -25.33398438 48.86499023 C-23.2237067 43.4043803 -20.78200751 38.46471272 -17.375 33.67578125 C-16.21683468 31.80776602 -16.21683468 31.80776602 -16.5859375 29.6640625 C-17.39048403 27.45210834 -17.39048403 27.45210834 -20.03125 25.328125 C-20.815 24.4825 -21.59875 23.636875 -22.40625 22.765625 C-21.79892032 15.13604588 -15.94207936 7.10745834 -10.4609375 2.00390625 C-7.02913302 -0.06431052 -3.944397 -0.23839762 0 0 Z " fill="#F8F8F8" transform="translate(554.40625,431.234375)"/>
<path d="M0 0 C0.99 0.66 1.98 1.32 3 2 C2.835 2.680625 2.67 3.36125 2.5 4.0625 C1.65344353 9.03601927 1.14310406 12.71465609 4 17 C6.74185153 15.951645 9.21590071 14.87242231 11.75 13.375 C16.54952865 11.34443019 21.12972341 11.08529647 26.1328125 12.6796875 C27.78688514 13.38283579 29.39929372 14.18261807 31 15 C31 15.66 31 16.32 31 17 C29.3603125 17.86625 29.3603125 17.86625 27.6875 18.75 C24.70529604 20.47653913 22.58152938 21.83694124 21 25 C20.1639933 27.82631118 20.1639933 27.82631118 21 31 C23.03113357 33.966686 25.47466755 36.45097775 28 39 C28.71800781 39.75539063 29.43601562 40.51078125 30.17578125 41.2890625 C33.00349172 44.23353009 33.00349172 44.23353009 36 47 C36.66 47 37.32 47 38 47 C37.52949219 46.33613281 37.05898438 45.67226563 36.57421875 44.98828125 C35.95160156 44.10527344 35.32898438 43.22226562 34.6875 42.3125 C34.07261719 41.44238281 33.45773437 40.57226562 32.82421875 39.67578125 C28.16389844 32.83997951 28.16389844 32.83997951 27.5 29.4375 C28 27 28 27 30.1875 24.625 C33 23 33 23 35.4375 22.75 C39.97122531 24.96157332 42.77667746 29.55335493 45 34 C45.09502826 35.38938495 45.13072839 36.78315188 45.1328125 38.17578125 C45.13410156 39.00400391 45.13539063 39.83222656 45.13671875 40.68554688 C45.13285156 41.55244141 45.12898437 42.41933594 45.125 43.3125 C45.12886719 44.16779297 45.13273438 45.02308594 45.13671875 45.90429688 C45.13027628 50.06290869 45.05322505 53.94591946 44 58 C41.56250674 57.03964488 39.14957515 56.06953932 36.7734375 54.96484375 C29.81081646 51.98248327 23.38279173 51.49229751 15.90185547 51.50366211 C8.6990372 51.39670437 3.72878253 49.40354973 -1.6875 44.6328125 C-2.450625 43.80523437 -3.21375 42.97765625 -4 42.125 C-6.97475881 38.99463843 -9.79948048 36.29412473 -13.375 33.875 C-18.14007882 30.43141065 -20.30094701 26.50139698 -21.4453125 20.76953125 C-21.87855017 15.29755115 -20.36132023 11.99790893 -16.83984375 7.86328125 C-11.72363647 2.68189935 -7.72300645 -1.21145199 0 0 Z " fill="#F5F5F5" transform="translate(598,403)"/>
<path d="M0 0 C2.5224382 1.94588089 4.00590399 3.5599155 4.5234375 6.7734375 C4.58807767 10.56135165 4.43784752 13.15266667 2.8125 16.625 C0.12124152 18.73956023 -0.96915553 19.10208457 -4.22265625 19.69921875 C-5.11662109 19.86397705 -6.01058594 20.02873535 -6.93164062 20.19848633 C-11.90474472 21.04264968 -16.88633749 21.81625138 -21.875 22.5625 C-28.82629517 23.61410363 -35.77542442 24.67308848 -42.71484375 25.80078125 C-43.8227124 25.9807666 -44.93058105 26.16075195 -46.07202148 26.34619141 C-48.16958714 26.68848985 -50.26678271 27.03306715 -52.36352539 27.38037109 C-60.4248863 28.69301508 -68.50949076 29.79189746 -76.6875 29.9375 C-77.57179688 29.96328125 -78.45609375 29.9890625 -79.3671875 30.015625 C-82.34348371 29.61624979 -83.65993038 28.75319462 -85.8125 26.6875 C-86.69684888 24.03445337 -87.09465314 22.07108368 -87.25 19.3125 C-87.31058594 18.56226563 -87.37117188 17.81203125 -87.43359375 17.0390625 C-86.66848677 14.14224235 -85.3874038 12.60083616 -83.00952148 10.79882812 C-77.96430971 8.24678857 -72.166606 7.88135591 -66.625 7.125 C-65.24208058 6.92133786 -63.8594322 6.71582738 -62.47705078 6.50854492 C-59.64617096 6.08740452 -56.81400649 5.67773494 -53.97998047 5.27832031 C-50.05759019 4.72516708 -46.13981835 4.14383528 -42.22265625 3.5546875 C-37.78259084 2.88751805 -33.34154646 2.22861488 -28.8984375 1.58203125 C-23.46331849 0.79084864 -18.036911 -0.05112656 -12.61181641 -0.90820312 C-7.95441808 -1.5808572 -4.38968262 -2.04851855 0 0 Z " fill="#EBCF47" transform="translate(434.8125,509.3125)"/>
<path d="M0 0 C6.86263097 1.98253783 6.86263097 1.98253783 9 5 C9.37109375 8.29296875 9.37109375 8.29296875 9.4375 12.1875 C9.68663806 18.31293548 10.38568524 22.96081115 14 28 C14.63421875 28.91845703 14.63421875 28.91845703 15.28125 29.85546875 C21.14984669 37.5009461 28.59014464 40.34475414 37.91015625 41.73828125 C38.59980469 41.82464844 39.28945313 41.91101563 40 42 C35.92172811 46.43811941 32.19138519 49.60636761 26.0546875 50.36328125 C18.82712049 50.24785328 11.64065056 49.84993471 4.4375 49.25 C3.58075684 49.18852783 2.72401367 49.12705566 1.84130859 49.0637207 C-3.25452108 48.57770809 -6.30358909 47.83199355 -10 44 C-14.27272709 37.36990625 -13.81217766 29.63446998 -13 22 C-10.75583049 13.5120522 -6.20146832 6.20146832 0 0 Z " fill="#FAFAF9" transform="translate(576,452)"/>
<path d="M0 0 C12.85990542 6.17530112 22.80251044 16.79556119 30 29 C30 29.66 30 30.32 30 31 C28.70964844 30.97679687 27.41929687 30.95359375 26.08984375 30.9296875 C24.37240166 30.91091764 22.65495326 30.89271875 20.9375 30.875 C19.66616211 30.84986328 19.66616211 30.84986328 18.36914062 30.82421875 C13.16581799 30.78403865 8.92530179 31.30254185 4 33 C9.445 35.475 9.445 35.475 15 38 C15 38.66 15 39.32 15 40 C13.03125 41.5078125 13.03125 41.5078125 10.5 43.125 C9.6646875 43.66382813 8.829375 44.20265625 7.96875 44.7578125 C7.3190625 45.16773438 6.669375 45.57765625 6 46 C-3.26106399 41.79583391 -7.01003603 31.74934249 -11 23 C-12.05336511 19.83990467 -12.20032888 17.4446864 -12.25 14.125 C-12.28867187 12.58199219 -12.28867187 12.58199219 -12.328125 11.0078125 C-11.87998821 6.89989194 -10.05761209 4.46051193 -7.6875 1.1875 C-4.88843052 -0.78221556 -3.38896537 -0.55455797 0 0 Z " fill="#FAFAF9" transform="translate(502,380)"/>
<path d="M0 0 C3.50860152 1.94922307 4.73215215 3.34377276 6.25 7.0625 C7.17119829 11.05435928 7.40900351 15.11492121 7.71875 19.19140625 C7.9785233 21.78553124 8.42528658 24.21027377 9 26.75 C10.44501685 33.41433145 10.65583657 40.20730069 11 47 C9.10507994 47.33848652 7.20901534 47.67056911 5.3125 48 C4.25675781 48.185625 3.20101563 48.37125 2.11328125 48.5625 C-0.64904062 48.95068074 -3.21742043 49.08259976 -6 49 C-7.77389135 41.52888105 -9.00150177 34.03151582 -10.125 26.4375 C-10.30675781 25.25736328 -10.48851562 24.07722656 -10.67578125 22.86132812 C-13.09697981 6.59560699 -13.09697981 6.59560699 -9.9375 2 C-6.23727467 -0.51930235 -4.3968344 -0.7066341 0 0 Z " fill="#EBCE48" transform="translate(388,458)"/>
<path d="M0 0 C3.5677811 2.35149209 5.84221079 4.99692157 7.75 8.8125 C8.15251298 14.0451687 7.77284518 17.46716006 4.75 21.8125 C1.10326445 24.93357998 -2.11595487 26.63652748 -6.875 27.375 C-11.78615577 26.55647404 -14.80083807 24.46154633 -18.0625 20.75 C-20.55707802 16.67989901 -20.88434318 12.46435002 -20.25 7.8125 C-15.84490881 -0.83453086 -8.98862773 -3.28430629 0 0 Z " fill="#FEFDF9" transform="translate(425.25,682.1875)"/>
<path d="M0 0 C0 4.27117326 -2.2252701 6.37762645 -4.6875 9.74609375 C-6.33547936 12.14140457 -6.33547936 12.14140457 -6 16 C-6.99 16 -7.98 16 -9 16 C-9.495 17.485 -9.495 17.485 -10 19 C-10 17.68 -10 16.36 -10 15 C-10.52464844 15.25394531 -11.04929687 15.50789062 -11.58984375 15.76953125 C-23.74610477 21.17006651 -40.41050203 24.93041636 -53.25390625 20.19140625 C-57.77586494 18.22953228 -62.21902698 16.08625566 -66.62133789 13.86914062 C-74.07841752 10.20960766 -81.27884481 8.85754302 -89.5625 8.375 C-90.78066406 8.30023437 -91.99882813 8.22546875 -93.25390625 8.1484375 C-94.16011719 8.09945312 -95.06632813 8.05046875 -96 8 C-89.1438877 2.56239369 -80.39986928 3.12473853 -72 4 C-66.1744653 5.50002669 -60.94353042 8.06227402 -55.54296875 10.66796875 C-42.03261067 16.93903904 -30.39617558 15.95090833 -16.46484375 11.12109375 C-10.20498941 8.55487559 -4.78028996 4.78028996 0 0 Z " fill="#F2F1F1" transform="translate(697,555)"/>
<path d="M0 0 C7.39048809 3.69524405 12.83243716 10.99849443 17 18 C17 18.66 17 19.32 17 20 C15.79472656 19.71382813 14.58945312 19.42765625 13.34765625 19.1328125 C7.09233618 17.74274137 0.77232817 16.82154322 -5.5625 15.875 C-6.76197266 15.69324219 -7.96144531 15.51148438 -9.19726562 15.32421875 C-12.13110539 14.88005177 -15.06534077 14.43871415 -18 14 C-16.842121 8.68063507 -14.3527318 5.14230685 -10.1875 1.625 C-6.35990051 -0.32632523 -4.24556929 -0.6065099 0 0 Z " fill="#0A0909" transform="translate(552,360)"/>
<path d="M0 0 C3.3 0 6.6 0 10 0 C10.66 3.3 11.32 6.6 12 10 C13.258125 10.20625 14.51625 10.4125 15.8125 10.625 C16.52019531 10.74101562 17.22789062 10.85703125 17.95703125 10.9765625 C20.31755824 11.19577848 20.31755824 11.19577848 23 9 C23.72382467 6.94074861 23.72382467 6.94074861 24 5 C24.66 5 25.32 5 26 5 C31.06403896 10.34902817 35.20221501 16.18800178 38 23 C37.67 23.66 37.34 24.32 37 25 C36.45214844 24.60167969 35.90429688 24.20335937 35.33984375 23.79296875 C30.05800116 20.26315199 25.67307185 18.55859144 19.375 17.5625 C12.45684699 16.3687521 8.38669786 14.51438369 4 9 C0 3.30372493 0 3.30372493 0 0 Z " fill="#EEEDED" transform="translate(609,458)"/>
<path d="M0 0 C-0.97035183 6.33517058 -4.06266892 11.43210644 -8.89453125 15.65625 C-13.51604374 18.79195078 -17.45820853 19.70311831 -23 20 C-25.25491788 15.49016424 -25.32431261 11.94576735 -25 7 C-22.37981388 4.37981388 -21.08460122 4.74610426 -17.4375 4.625 C-12.22160471 4.29233761 -8.36983128 3.22146994 -3.7421875 0.83984375 C-2 0 -2 0 0 0 Z " fill="#F5F5F5" transform="translate(624,503)"/>
<path d="M0 0 C9.972804 1.50563437 17.9570858 9.42988403 25 16.125 C23 17.125 23 17.125 21.07421875 16.6015625 C20.28660156 16.32054687 19.49898437 16.03953125 18.6875 15.75 C14.48872855 14.39300575 10.71753652 13.88587924 6.3125 13.6875 C0.73579682 13.384275 -2.48918586 12.37698229 -7 9.125 C-7.36718454 3.61723191 -7.36718454 3.61723191 -5.73828125 1.43359375 C-3.584413 -0.18785763 -2.66187241 -0.24465739 0 0 Z " fill="#080908" transform="translate(604,432.875)"/>
<path d="M0 0 C6.45046428 2.12957736 12.87297189 4.33224549 19.28515625 6.57421875 C20.22685165 6.90291458 21.16854706 7.23161041 22.13877869 7.57026672 C25.11355875 8.60875479 28.08803407 9.64811258 31.0625 10.6875 C33.09307879 11.39654215 35.12367755 12.10552708 37.15429688 12.81445312 C42.1030957 14.54230752 47.05164537 16.27087393 52 18 C52 18.33 52 18.66 52 19 C34.80640649 18.62622623 16.91825562 17.93953877 3.99609375 4.9921875 C2.59477606 3.38603683 1.28446441 1.70104746 0 0 Z " fill="#F2F0EE" transform="translate(628,528)"/>
<path d="M0 0 C5.30456982 0.64490489 7.01045544 2.7502751 10.28515625 6.734375 C17 15.60592255 17 15.60592255 17 20 C13.4178996 20.34115242 11.24363488 20.10938709 7.9375 18.625 C3.0754556 14.28019437 0.2493049 8.89193682 -0.3125 2.375 C-0.209375 1.59125 -0.10625 0.8075 0 0 Z " fill="#EFEEEE" transform="translate(594,463)"/>
<path d="M0 0 C3.62393179 1.3494103 6.99941224 3.01536912 10.41772461 4.81811523 C19.95266304 9.80744782 29.42006253 13.57136972 40.25 14.625 C44 15 44 15 46 17 C42.52099751 17.08825361 39.04228883 17.14080635 35.5625 17.1875 C34.58861328 17.21263672 33.61472656 17.23777344 32.61132812 17.26367188 C21.55363612 17.37461862 14.13950191 14.48407386 6 7 C3.86699136 4.73971307 1.93822106 2.43520081 0 0 Z " fill="#EAE7E6" transform="translate(627,539)"/>
<path d="M0 0 C8.81008161 3.54539042 8.81008161 3.54539042 11.78515625 6.984375 C-10.20341518 5.65866071 -10.20341518 5.65866071 -17.21484375 0.984375 C-11.59750881 -2.19452591 -6.07021938 -1.91768777 0 0 Z " fill="#E0DEDE" transform="translate(661.21484375,525.015625)"/>
<path d="M0 0 C0 4.27117326 -2.2252701 6.37762645 -4.6875 9.74609375 C-6.33547936 12.14140457 -6.33547936 12.14140457 -6 16 C-6.99 16 -7.98 16 -9 16 C-9.33 16.99 -9.66 17.98 -10 19 C-10.94702354 15.56444746 -11.48588097 12.55106626 -11 9 C-8.39974009 6.00262927 -5.34321818 4.09025364 -2 2 C-1.34 1.34 -0.68 0.68 0 0 Z " fill="#EAE7E6" transform="translate(697,555)"/>
<path d="M0 0 C-0.99 0.33 -1.98 0.66 -3 1 C-2.01 1.66 -1.02 2.32 0 3 C-3.63 3 -7.26 3 -11 3 C-4.95121951 -1.53658537 -4.95121951 -1.53658537 0 0 Z " fill="#C7C6C7" transform="translate(612,560)"/>
<path d="M0 0 C0 3.99904969 -1.72586967 5.80200422 -4 9 C-5.32 8.34 -6.64 7.68 -8 7 C-5.36 4.69 -2.72 2.38 0 0 Z " fill="#E4E1E1" transform="translate(697,555)"/>
<path d="M0 0 C1.25541557 3.76624671 0.37061958 5.37188934 -1 9 C-2.32 8.67 -3.64 8.34 -5 8 C-3.35 5.36 -1.7 2.72 0 0 Z " fill="#EBD45C" transform="translate(711,560)"/>
</svg>
