<?xml version="1.0" encoding="utf-8"?>
<svg version="1.1" xmlns="http://www.w3.org/2000/svg" width="1024" height="1024" viewBox="290 290 440 440">
  <path d="M 0 0 C 12.559 0.558 23.231 10.12 31.633 18.684 C 45.756 34.599 52.022 53.473 51.17 74.595 C 49.839 93.381 41.006 109.724 28 123 C 26.623 124.067 25.231 125.114 23.813 126.125 C 21.722 127.807 21.061 128.583 20.664 131.279 C 20.796 138.193 21.558 144.81 22.75 151.617 C 22.928 152.677 23.105 153.738 23.288 154.83 C 23.85 158.18 24.424 161.527 25 164.875 C 25.574 168.244 26.145 171.614 26.712 174.984 C 27.063 177.072 27.419 179.159 27.78 181.245 C 27.94 182.19 28.101 183.135 28.266 184.109 C 28.479 185.348 28.479 185.348 28.696 186.613 C 29.013 189.1 56.51 352.174 58.734 359.468 C 59.115 365.124 63.015 392.467 29.057 394.971 C -11.772 397.981 -13.176 371.997 -14.279 368.774 C -14.605 366.263 -36.652 197.978 -36.988 195.391 C -38.21 186.004 -39.452 176.62 -40.703 167.238 C -40.965 165.265 -41.224 163.291 -41.483 161.318 C -41.852 158.523 -42.235 155.73 -42.625 152.938 C -42.773 151.792 -42.773 151.792 -42.923 150.624 C -43.53 146.433 -44.222 143.246 -47 140 C -49.598 138.435 -52.329 137.289 -55.125 136.125 C -61.872 133.138 -67.445 129.915 -73 125 C -73.574 124.578 -74.147 124.157 -74.738 123.723 C -87.054 114.408 -95.54 97.498 -98.527 82.707 C -101.184 61.868 -97.347 42.149 -84.576 25.099 C -76.018 14.562 -76.018 14.562 -71 14 C -69.524 17.42 -68.593 20.589 -67.994 24.262 C -67.739 25.799 -67.739 25.799 -67.478 27.366 C -67.301 28.462 -67.124 29.558 -66.941 30.688 C -66.552 33.018 -66.162 35.349 -65.771 37.68 C -65.164 41.346 -64.56 45.013 -63.962 48.681 C -63.381 52.226 -62.787 55.769 -62.191 59.313 C -62.016 60.408 -61.841 61.504 -61.661 62.634 C -61.487 63.658 -61.314 64.683 -61.135 65.738 C -60.988 66.636 -60.841 67.533 -60.689 68.458 C -59.898 71.376 -58.713 73.518 -57 76 C -55.259 77.045 -55.259 77.045 -53.262 77.441 C -52.53 77.631 -51.799 77.82 -51.046 78.015 C -49.878 78.286 -49.878 78.286 -48.687 78.563 C -47.062 78.973 -45.437 79.385 -43.812 79.797 C -42.598 80.096 -42.598 80.096 -41.359 80.4 C -36.836 81.55 -32.385 82.951 -27.918 84.301 C -23.905 85.262 -21.28 85.746 -17.616 83.611 C -16.807 82.972 -15.998 82.334 -15.164 81.676 C -14.264 80.976 -13.365 80.277 -12.437 79.557 C -11.509 78.816 -10.581 78.076 -9.625 77.313 C -7.785 75.87 -5.943 74.429 -4.102 72.988 C -3.23 72.301 -2.359 71.613 -1.462 70.905 C 0.689 69.241 2.869 67.657 5.102 66.105 C 8.035 64.315 8.035 64.315 9 62 C 9.351 55.481 8.332 49.557 7.031 43.184 C 6.732 41.661 6.732 41.661 6.426 40.107 C 5.791 36.882 5.147 33.66 4.5 30.438 C 3.854 27.212 3.21 23.985 2.574 20.757 C 2.18 18.755 1.779 16.754 1.372 14.754 C 0.383 9.733 -0.222 5.118 0 0 Z" fill="#EACE47" transform="translate(394,308)"/>
  <path d="M0 0 C0.78068848 0.12890625 1.56137695 0.2578125 2.36572266 0.390625 C58.75496846 10.03630078 108.272083 41.3107032 141.50390625 87.8671875 C163.32773875 119.32681224 178.50792863 158.47550056 178.0625 197.125 C178.05798828 197.89070312 178.05347656 198.65640625 178.04882812 199.4453125 C178.03725564 201.29691037 178.01933155 203.14846688 178 205 C174.13708956 201.24321347 170.60426087 197.29960719 167.125 193.1875 C166.06544141 191.94242127 165.00554737 190.69762791 163.9453125 189.453125 C163.18589355 188.56077148 163.18589355 188.56077148 162.41113281 187.65039062 C160.13642522 184.99000597 157.82239818 182.36483961 155.5 179.74609375 C155.005 179.16988281 154.51 178.59367188 154 178 C153.31550781 177.24976563 152.63101562 176.49953125 151.92578125 175.7265625 C149.62215155 172.46503404 149.00649282 169.83881061 148.1875 165.9375 C142.60734425 141.86279507 132.16570391 118.60232475 117 99 C116.33613281 98.12859375 115.67226563 97.2571875 114.98828125 96.359375 C110.2743918 90.32115118 105.21701232 84.6062033 100 79 C99.08154297 78.00033203 99.08154297 78.00033203 98.14453125 76.98046875 C73.71019157 51.39995535 37.87141482 33.17414267 3.22705078 27.39355469 C1.70776668 27.12507344 0.19515432 26.81653127 -1.30908203 26.47363281 C-10.5516355 24.47283308 -19.83862657 24.60442239 -29.25 24.625 C-30.13817413 24.62521149 -31.02634827 24.62542297 -31.94143677 24.62564087 C-50.95842789 24.67084036 -68.46915059 27.13526073 -86.6015625 32.94921875 C-89.40537282 33.81614401 -92.11335716 34.49677299 -95 35 C-95.67546875 34.04738281 -96.3509375 33.09476562 -97.046875 32.11328125 C-97.9478398 30.8462995 -98.84888577 29.57937548 -99.75 28.3125 C-100.41515625 27.37374023 -100.41515625 27.37374023 -101.09375 26.41601562 C-101.53203125 25.80048828 -101.9703125 25.18496094 -102.421875 24.55078125 C-103.06866211 23.64126709 -103.06866211 23.64126709 -103.72851562 22.71337891 C-104.8783721 21.16389873 -106.12982597 19.6911003 -107.390625 18.23046875 C-107.92171875 17.49441406 -108.4528125 16.75835937 -109 16 C-108 13 -108 13 -106.41796875 12.04296875 C-91.99873158 6.51264836 -77.24652871 2.40315849 -62 0 C-60.90945313 -0.20496094 -59.81890625 -0.40992188 -58.6953125 -0.62109375 C-39.67125746 -3.80641474 -19.01066811 -3.16486128 0 0 Z " fill="#EBCF4A" transform="translate(540,303)"/>
  <g>
    <g>
      <path d="M 507.16 365.074 C 514.985 368.759 521.89 373.89 528 380 C 529.846 380.38 529.846 380.38 531.98 380.457 C 532.804 380.515 533.628 380.573 534.477 380.633 C 535.372 380.692 536.266 380.751 537.187 380.812 C 545.499 381.476 553.541 382.723 561.687 384.5 C 562.685 384.714 563.682 384.927 564.71 385.147 C 571.736 386.736 571.736 386.736 574 389 C 573.203 389.562 573.203 389.562 572.39 390.137 C 564.205 396.067 559.34 402.493 557.527 412.648 C 557.291 414.759 557.137 416.88 557 419 C 557.831 418.494 558.663 417.989 559.519 417.469 C 560.606 416.819 561.693 416.169 562.812 415.5 C 563.891 414.85 564.97 414.2 566.082 413.531 C 569 412 569 412 572 412 C 571.814 410.515 571.814 410.515 571.625 409 C 571.625 403.109 575.747 399.444 579.523 395.347 C 581 393.937 581 393.937 584 392 C 588.167 392.346 591.523 393.486 595.281 395.265 C 596.277 395.737 597.274 396.208 598.3 396.694 C 599.356 397.207 600.412 397.721 601.5 398.25 C 602.599 398.782 603.698 399.314 604.831 399.862 C 620.396 407.52 635.492 416.063 649 427 C 649.973 427.737 650.946 428.474 651.949 429.234 C 652.915 429.982 653.88 430.729 654.875 431.5 C 655.718 432.149 656.561 432.799 657.43 433.469 C 664.135 440.072 667.241 447.581 670 456.437 C 673.262 466.867 677.187 475.914 685.312 483.437 C 689.835 487.752 693.856 492.291 697.746 497.183 C 700.143 500.179 702.631 503.084 705.125 506 C 714.253 516.971 714.253 516.971 717 523 C 716.676 525.312 716.676 525.312 716 527 C 712.578 526.589 709.469 526.177 706.234 524.957 C 701.3 523.497 696.56 524.014 691.461 524.222 C 687.832 523.989 686.56 523.489 684 521 C 684.955 522.627 685.914 524.251 686.875 525.875 C 687.409 526.78 687.942 527.685 688.492 528.617 C 689.92 531.066 689.92 531.066 692 533 C 693.485 532.01 693.485 532.01 695 531 C 698.217 530.665 700.181 530.471 702.937 532.25 C 704 534 704 534 703.937 535.812 C 703 538 703 538 700.937 540.937 C 698.947 544.084 698.575 545.386 699 549 C 703.593 547.514 706.436 545.15 710 542 C 706.696 552.436 701.735 562.133 694 570 C 693.01 570.33 692.02 570.66 691 571 C 690.285 569.359 690.285 569.359 690 567 C 691.433 564.203 691.433 564.203 693.437 561.25 C 694.096 560.265 694.755 559.28 695.433 558.265 C 696.209 557.144 696.209 557.144 697 556 C 696.515 556.459 696.03 556.918 695.531 557.39 C 690.99 561.547 686.671 564.611 681 567 C 679.799 567.512 679.799 567.512 678.574 568.035 C 668.236 571.91 656.186 573.077 645.946 568.693 C 642.609 567.173 639.299 565.6 636 564 C 626.68 559.588 615.015 557.613 604.992 561.023 C 604.335 561.345 603.677 561.668 603 562 C 604.614 562.129 604.614 562.129 606.262 562.262 C 619.676 563.49 630.429 567.415 642.344 573.765 C 655.43 579.847 674.07 574.479 687 570 C 686.82 582.248 685.416 590.585 676.75 599.812 C 672.699 603.626 668.311 607.144 663 609 C 662.01 608.67 661.02 608.34 660 608 C 660.33 607.01 660.66 606.02 661 605 C 660.492 605.265 659.984 605.531 659.461 605.804 C 652.841 609.201 647.594 611.304 640 611 C 642.475 606.545 642.475 606.545 645 602 C 644.322 602.277 643.644 602.554 642.945 602.84 C 636.509 605.344 630.893 606.6 624 607 C 625.32 604.03 626.64 601.06 628 598 C 627.01 598 626.02 598 625 598 C 624.06 596.556 623.123 595.109 622.212 593.646 C 618.335 588.379 612.155 585.917 606.062 584.187 C 605.327 583.978 604.592 583.768 603.835 583.553 C 589.12 579.688 575.446 581.862 562 588.937 C 545.313 599.312 535.192 615.228 530 634 C 529.145 638.318 528.487 642.625 528 647 C 527.34 647 526.68 647 526 647 C 525.545 646.147 525.545 646.147 525.082 645.277 C 524.663 644.505 524.244 643.733 523.812 642.937 C 523.203 641.806 523.203 641.806 522.582 640.652 C 520.573 637.283 518.309 634.171 516 631 C 515.66 632.041 515.319 633.083 514.969 634.156 C 504.79 664.553 486.697 691.782 459 709 C 462 700 462 700 463.082 697.176 C 465.609 688.432 464.384 678.104 462.902 669.246 C 462.775 668.463 462.647 667.679 462.516 666.873 C 460.246 653.179 457.688 639.531 455.188 625.877 C 454.24 620.698 453.296 615.519 452.353 610.339 C 449.935 597.062 447.514 583.785 445.072 570.511 C 444.399 566.846 443.73 563.18 443.062 559.513 C 442.638 557.199 442.208 554.886 441.778 552.573 C 441.531 551.218 441.285 549.863 441.039 548.508 C 440.835 547.4 440.631 546.293 440.42 545.153 C 441.901 545.238 437.407 538.509 439.016 533.809 C 433.761 517.932 431.44 497.125 430.584 493.288 C 430.25 491.286 429.945 489.279 429.664 487.269 C 429.495 486.205 429.326 485.141 429.152 484.044 C 428.617 480.637 428.122 477.225 427.625 473.812 C 427.269 471.533 426.911 469.253 426.551 466.974 C 426.211 464.781 425.874 462.588 425.539 460.394 C 425.383 459.373 425.227 458.352 425.066 457.3 C 424.27 451.816 423.616 446.541 424 441 C 425.796 438.732 427.272 437.195 429.437 435.375 C 438.311 427.192 443.998 418.208 448.062 406.875 C 450.854 399.283 450.854 399.283 454.562 397.312 C 456.586 396.625 456.586 396.625 459 396 C 460.065 395.649 461.129 395.299 462.226 394.937 C 467.11 393.35 471.946 391.928 477 391 C 477.158 390.082 477.317 389.164 477.48 388.219 C 478.87 380.91 480.17 374.776 485 369 C 485.825 368.01 486.65 367.02 487.5 366 C 493.036 361.84 501.009 362.983 507.16 365.074 Z" style=""/>
      <path d="M 502 380 C 514.86 386.175 524.803 396.796 532 409 C 532 409.66 532 410.32 532 411 C 530.71 410.977 529.419 410.954 528.09 410.93 C 526.372 410.911 524.655 410.893 522.938 410.875 C 521.666 410.85 521.666 410.85 520.369 410.824 C 515.166 410.784 510.925 411.303 506 413 C 511.445 415.475 511.445 415.475 517 418 C 517 418.66 517 419.32 517 420 C 515.031 421.508 515.031 421.508 512.5 423.125 C 511.665 423.664 510.829 424.203 509.969 424.758 C 509.319 425.168 508.669 425.578 508 426 C 498.739 421.796 494.99 411.749 491 403 C 489.947 399.84 489.8 397.445 489.75 394.125 C 489.711 392.582 489.711 392.582 489.672 391.008 C 490.12 386.9 491.942 384.461 494.313 381.188 C 497.112 379.218 498.611 379.445 502 380 Z" style="fill-rule: nonzero; paint-order: stroke markers; fill: rgb(255, 255, 255);"/>
    </g>
  </g>
  <path d="M0 0 C3.87512601 11.62537802 -9.48169391 34.18722483 -14.70458984 44.83911133 C-33.66114101 82.17391142 -63.02824389 111.88334889 -99 133 C-99.57975586 133.34482422 -100.15951172 133.68964844 -100.75683594 134.04492188 C-143.15131564 158.97141825 -197.08640316 166.99656321 -245 156 C-245 155.34 -245 154.68 -245 154 C-243.42283761 152.74966403 -241.78498678 151.57557958 -240.125 150.4375 C-230.64817996 143.82869371 -230.64817996 143.82869371 -222.86743164 135.40161133 C-219.89102595 133.16765328 -216.60522725 133.57951278 -213.02734375 133.59375 C-212.23082901 133.58291382 -211.43431427 133.57207764 -210.61366272 133.56091309 C-208.0548618 133.52663974 -205.49649983 133.51109776 -202.9375 133.5 C-152.34446839 133.27354486 -106.64257111 113.92891559 -70.4375 78.5703125 C-67.05202963 75.14754057 -64.05738228 71.50041606 -61.125 67.6875 C-60.6403125 67.06810547 -60.155625 66.44871094 -59.65625 65.81054688 C-57.09709421 62.5558508 -57.09709421 62.5558508 -55 59 C-53.12854051 58.52362849 -51.2553729 58.0531542 -49.375 57.61328125 C-38.19845924 54.72723372 -29.38985896 48.9120656 -22.50390625 39.59765625 C-19.19443377 33.8812947 -17.38597101 27.31693835 -16.625 20.77734375 C-16 18 -16 18 -14.3984375 16.453125 C-13.73070312 16.05609375 -13.06296875 15.6590625 -12.375 15.25 C-6.78229183 11.46106618 -3.00537091 6.01074182 0 0 Z " fill="#EDD049" transform="translate(711,560)"/>
  <path d="M 0 0 C 0.666 0.436 1.333 0.871 2.02 1.32 C 8.529 5.526 15.148 9.382 22 13 C 21.723 14.244 21.446 15.488 21.16 16.77 C 19.908 22.406 18.67 28.046 17.438 33.688 C 17.216 34.694 16.995 35.7 16.768 36.736 C 16.554 37.714 16.341 38.692 16.121 39.699 C 15.834 41.012 15.834 41.012 15.541 42.35 C 14.366 48.107 13.829 53.609 13.797 59.484 C 13.788 60.706 13.788 60.706 13.78 61.952 C 13.77 63.677 13.764 65.402 13.76 67.126 C 13.75 69.701 13.719 72.274 13.688 74.848 C 13.586 90.495 15.825 105.259 20.125 120.313 C 20.424 121.362 20.722 122.412 21.03 123.494 C 25.63 139.092 32.033 158.529 43.521 170.597 C 49.543 177.227 49.586 185.428 50.375 193.938 C 50.538 195.463 50.704 196.989 50.871 198.514 C 51.635 205.685 52.214 212.78 52 220 C 46.531 216.289 43.524 213.603 43 213 C 31.332 201.611 21.915 187.162 14 173 C 13.662 172.411 13.323 171.821 12.975 171.214 C -4.642 140.503 -12.23 106.814 -12.125 71.625 C -12.129 70.331 -12.133 69.037 -12.137 67.703 C -12.123 53.74 -11.254 40.455 -8.187 26.813 C -7.939 25.645 -7.691 24.478 -7.436 23.275 C -2.995 2.995 -2.995 2.995 0 0 Z" fill="#ECCF49" transform="translate(314,440)"/>
  <path d="M0 0 C0.66 0.33 1.32 0.66 2 1 C1.38125 1.62261719 1.38125 1.62261719 0.75 2.2578125 C-7.4281865 10.98364542 -13.06343086 21.76005917 -17 33 C-14.36 33.33 -11.72 33.66 -9 34 C-10.2640523 37.94291543 -11.704904 41.71303073 -13.375 45.5 C-18.92425757 58.68359121 -21.17604572 71.09626637 -21.125 85.3125 C-21.12886719 86.40884766 -21.13273437 87.50519531 -21.13671875 88.63476562 C-21.13478516 90.20194336 -21.13478516 90.20194336 -21.1328125 91.80078125 C-21.13168457 92.75122314 -21.13055664 93.70166504 -21.12939453 94.6809082 C-21.15236234 97.02585176 -21.15236234 97.02585176 -20 99 C-19.63648438 98.49210938 -19.27296875 97.98421875 -18.8984375 97.4609375 C-15.56912546 92.90234101 -12.18231271 88.80210246 -8 85 C-7.34 85 -6.68 85 -6 85 C-6.04640625 86.29550781 -6.0928125 87.59101562 -6.140625 88.92578125 C-6.41343948 100.18151012 -5.54515043 110.34787122 -2.875 121.2890625 C-2 125 -2 125 -2 128 C-0.94039062 127.75830078 -0.94039062 127.75830078 0.140625 127.51171875 C13.9266592 125.04454596 28.06997667 128.68421657 39.75 136.25 C40.4925 136.8275 41.235 137.405 42 138 C42 138.33 42 138.66 42 139 C40.76765625 139.09796875 39.5353125 139.1959375 38.265625 139.296875 C28.70830236 140.12887191 19.90114612 141.18522309 11 145 C9.99582031 145.42152344 8.99164062 145.84304688 7.95703125 146.27734375 C0.47065891 149.70266747 -5.18397905 154.20971365 -11 160 C-18.21082478 153.44470475 -22.95697084 145.8849948 -26.375 136.8125 C-26.62564209 136.14758545 -26.87628418 135.4826709 -27.13452148 134.79760742 C-28.65585182 130.5343876 -29.49823129 126.4984148 -30 122 C-31.65 125.3 -33.3 128.6 -35 132 C-37.06365451 128.90451823 -37.70846051 126.71107157 -38.5625 123.125 C-38.81128906 122.09632813 -39.06007813 121.06765625 -39.31640625 120.0078125 C-39.54199219 119.01523437 -39.76757812 118.02265625 -40 117 C-40.17708496 116.23582764 -40.35416992 115.47165527 -40.53662109 114.68432617 C-41.04306421 111.7505316 -41.11292044 109.01948534 -41.09765625 106.04296875 C-41.09443359 104.93115234 -41.09121094 103.81933594 -41.08789062 102.67382812 C-41.07951172 101.52333984 -41.07113281 100.37285156 -41.0625 99.1875 C-41.05798828 98.01767578 -41.05347656 96.84785156 -41.04882812 95.64257812 C-41.0370693 92.76166642 -41.02063426 89.88085956 -41 87 C-45.53303485 93.77638327 -49.30510376 100.28355798 -52 108 C-52.33 108 -52.66 108 -53 108 C-53.82931834 78.52092283 -53.82931834 78.52092283 -49 67 C-48.62617188 66.05898438 -48.25234375 65.11796875 -47.8671875 64.1484375 C-43.88391648 54.78379371 -38.90195502 45.52940548 -32 38 C-35.96 38.99 -39.92 39.98 -44 41 C-38.64159101 22.45990491 -18.06447753 9.70918376 -2.14453125 0.8984375 C-1.43683594 0.60195313 -0.72914063 0.30546875 0 0 Z " transform="translate(523,435)" style="fill: rgb(255, 255, 255);"/>
  <path d="M0 0 C4.60565631 1.35950096 6.3811003 4.73351422 8.59375 8.765625 C9.25375 9.755625 9.91375 10.745625 10.59375 11.765625 C9.706875 12.384375 8.82 13.003125 7.90625 13.640625 C0.71060993 19.68855256 -1.2760074 29.00531327 -2.65625 37.890625 C-2.89601563 39.29634766 -2.89601563 39.29634766 -3.140625 40.73046875 C-7.47128676 62.96241906 -7.47128676 62.96241906 -1.40625 83.765625 C2.7574721 89.52104846 7.35787596 93.39663331 13.59375 96.765625 C12.93375 95.92 12.27375 95.074375 11.59375 94.203125 C9.34102595 90.33125553 9.24197304 88.16283703 9.59375 83.765625 C17.07027526 80.83643343 27.47294028 79.65138174 35.08203125 82.79296875 C38.96975953 85.90487542 41.25736 90.21019437 43.453125 94.6171875 C44.64220697 96.8568967 46.02729635 98.77604881 47.59375 100.765625 C42.18309911 104.82361317 42.18309911 104.82361317 39.6484375 104.57421875 C37.24057774 103.62663896 35.51995397 102.33998082 33.46875 100.765625 C28.49478437 97.30619466 24.58652729 96.93443563 18.59375 96.765625 C19.58375 101.055625 20.57375 105.345625 21.59375 109.765625 C13.35476485 110.53204222 4.8074785 107.66209149 -2.40625 103.765625 C-0.8157668 110.99509411 1.04680106 117.26288528 4.59375 123.765625 C4.92375 124.755625 5.25375 125.745625 5.59375 126.765625 C-3.55066074 124.65537637 -9.96761102 117.99261762 -14.96875 110.38671875 C-19.41980174 102.27080648 -20.549564 93.27931207 -20.53125 84.140625 C-20.53382813 82.84898437 -20.53640625 81.55734375 -20.5390625 80.2265625 C-20.4345603 77.50335815 -20.22839646 75.33646394 -19.40625 72.765625 C-20.128125 72.6625 -20.85 72.559375 -21.59375 72.453125 C-24.87752745 71.65042385 -26.85725633 71.02330511 -29.40625 68.765625 C-30.01333854 62.30191756 -28.60474796 57.3811196 -26.28125 51.390625 C-25.96865234 50.55716553 -25.65605469 49.72370605 -25.33398438 48.86499023 C-23.2237067 43.4043803 -20.78200751 38.46471272 -17.375 33.67578125 C-16.21683468 31.80776602 -16.21683468 31.80776602 -16.5859375 29.6640625 C-17.39048403 27.45210834 -17.39048403 27.45210834 -20.03125 25.328125 C-20.815 24.4825 -21.59875 23.636875 -22.40625 22.765625 C-21.79892032 15.13604588 -15.94207936 7.10745834 -10.4609375 2.00390625 C-7.02913302 -0.06431052 -3.944397 -0.23839762 0 0 Z " transform="translate(554.40625,431.234375)" style="fill: rgb(255, 255, 255);"/>
  <path d="M0 0 C0.99 0.66 1.98 1.32 3 2 C2.835 2.680625 2.67 3.36125 2.5 4.0625 C1.65344353 9.03601927 1.14310406 12.71465609 4 17 C6.74185153 15.951645 9.21590071 14.87242231 11.75 13.375 C16.54952865 11.34443019 21.12972341 11.08529647 26.1328125 12.6796875 C27.78688514 13.38283579 29.39929372 14.18261807 31 15 C31 15.66 31 16.32 31 17 C29.3603125 17.86625 29.3603125 17.86625 27.6875 18.75 C24.70529604 20.47653913 22.58152938 21.83694124 21 25 C20.1639933 27.82631118 20.1639933 27.82631118 21 31 C23.03113357 33.966686 25.47466755 36.45097775 28 39 C28.71800781 39.75539063 29.43601562 40.51078125 30.17578125 41.2890625 C33.00349172 44.23353009 33.00349172 44.23353009 36 47 C36.66 47 37.32 47 38 47 C37.52949219 46.33613281 37.05898438 45.67226563 36.57421875 44.98828125 C35.95160156 44.10527344 35.32898438 43.22226562 34.6875 42.3125 C34.07261719 41.44238281 33.45773437 40.57226562 32.82421875 39.67578125 C28.16389844 32.83997951 28.16389844 32.83997951 27.5 29.4375 C28 27 28 27 30.1875 24.625 C33 23 33 23 35.4375 22.75 C39.97122531 24.96157332 42.77667746 29.55335493 45 34 C45.09502826 35.38938495 45.13072839 36.78315188 45.1328125 38.17578125 C45.13410156 39.00400391 45.13539063 39.83222656 45.13671875 40.68554688 C45.13285156 41.55244141 45.12898437 42.41933594 45.125 43.3125 C45.12886719 44.16779297 45.13273438 45.02308594 45.13671875 45.90429688 C45.13027628 50.06290869 45.05322505 53.94591946 44 58 C41.56250674 57.03964488 39.14957515 56.06953932 36.7734375 54.96484375 C29.81081646 51.98248327 23.38279173 51.49229751 15.90185547 51.50366211 C8.6990372 51.39670437 3.72878253 49.40354973 -1.6875 44.6328125 C-2.450625 43.80523437 -3.21375 42.97765625 -4 42.125 C-6.97475881 38.99463843 -9.79948048 36.29412473 -13.375 33.875 C-18.14007882 30.43141065 -20.30094701 26.50139698 -21.4453125 20.76953125 C-21.87855017 15.29755115 -20.36132023 11.99790893 -16.83984375 7.86328125 C-11.72363647 2.68189935 -7.72300645 -1.21145199 0 0 Z " transform="translate(598,403)" style="fill: rgb(255, 255, 255);"/>
  <path d="M0 0 C6.86263097 1.98253783 6.86263097 1.98253783 9 5 C9.37109375 8.29296875 9.37109375 8.29296875 9.4375 12.1875 C9.68663806 18.31293548 10.38568524 22.96081115 14 28 C14.63421875 28.91845703 14.63421875 28.91845703 15.28125 29.85546875 C21.14984669 37.5009461 28.59014464 40.34475414 37.91015625 41.73828125 C38.59980469 41.82464844 39.28945313 41.91101563 40 42 C35.92172811 46.43811941 32.19138519 49.60636761 26.0546875 50.36328125 C18.82712049 50.24785328 11.64065056 49.84993471 4.4375 49.25 C3.58075684 49.18852783 2.72401367 49.12705566 1.84130859 49.0637207 C-3.25452108 48.57770809 -6.30358909 47.83199355 -10 44 C-14.27272709 37.36990625 -13.81217766 29.63446998 -13 22 C-10.75583049 13.5120522 -6.20146832 6.20146832 0 0 Z " transform="translate(576,452)" style="fill: rgb(255, 255, 255);"/>
  <path d="M0 0 C0 4.27117326 -2.2252701 6.37762645 -4.6875 9.74609375 C-6.33547936 12.14140457 -6.33547936 12.14140457 -6 16 C-6.99 16 -7.98 16 -9 16 C-9.495 17.485 -9.495 17.485 -10 19 C-10 17.68 -10 16.36 -10 15 C-10.52464844 15.25394531 -11.04929687 15.50789062 -11.58984375 15.76953125 C-23.74610477 21.17006651 -40.41050203 24.93041636 -53.25390625 20.19140625 C-57.77586494 18.22953228 -62.21902698 16.08625566 -66.62133789 13.86914062 C-74.07841752 10.20960766 -81.27884481 8.85754302 -89.5625 8.375 C-90.78066406 8.30023437 -91.99882813 8.22546875 -93.25390625 8.1484375 C-94.16011719 8.09945312 -95.06632813 8.05046875 -96 8 C-89.1438877 2.56239369 -80.39986928 3.12473853 -72 4 C-66.1744653 5.50002669 -60.94353042 8.06227402 -55.54296875 10.66796875 C-42.03261067 16.93903904 -30.39617558 15.95090833 -16.46484375 11.12109375 C-10.20498941 8.55487559 -4.78028996 4.78028996 0 0 Z " transform="translate(697,555)" style="fill: rgb(255, 255, 255);"/>
  <path d="M0 0 C7.39048809 3.69524405 12.83243716 10.99849443 17 18 C17 18.66 17 19.32 17 20 C15.79472656 19.71382813 14.58945312 19.42765625 13.34765625 19.1328125 C7.09233618 17.74274137 0.77232817 16.82154322 -5.5625 15.875 C-6.76197266 15.69324219 -7.96144531 15.51148438 -9.19726562 15.32421875 C-12.13110539 14.88005177 -15.06534077 14.43871415 -18 14 C-16.842121 8.68063507 -14.3527318 5.14230685 -10.1875 1.625 C-6.35990051 -0.32632523 -4.24556929 -0.6065099 0 0 Z " transform="translate(552,360)" style=""/>
  <path d="M0 0 C3.3 0 6.6 0 10 0 C10.66 3.3 11.32 6.6 12 10 C13.258125 10.20625 14.51625 10.4125 15.8125 10.625 C16.52019531 10.74101562 17.22789062 10.85703125 17.95703125 10.9765625 C20.31755824 11.19577848 20.31755824 11.19577848 23 9 C23.72382467 6.94074861 23.72382467 6.94074861 24 5 C24.66 5 25.32 5 26 5 C31.06403896 10.34902817 35.20221501 16.18800178 38 23 C37.67 23.66 37.34 24.32 37 25 C36.45214844 24.60167969 35.90429688 24.20335937 35.33984375 23.79296875 C30.05800116 20.26315199 25.67307185 18.55859144 19.375 17.5625 C12.45684699 16.3687521 8.38669786 14.51438369 4 9 C0 3.30372493 0 3.30372493 0 0 Z " transform="translate(609,458)" style="fill: rgb(255, 255, 255);"/>
  <path d="M0 0 C-0.97035183 6.33517058 -4.06266892 11.43210644 -8.89453125 15.65625 C-13.51604374 18.79195078 -17.45820853 19.70311831 -23 20 C-25.25491788 15.49016424 -25.32431261 11.94576735 -25 7 C-22.37981388 4.37981388 -21.08460122 4.74610426 -17.4375 4.625 C-12.22160471 4.29233761 -8.36983128 3.22146994 -3.7421875 0.83984375 C-2 0 -2 0 0 0 Z " transform="translate(624,503)" style="fill: rgb(255, 255, 255);"/>
  <path d="M0 0 C9.972804 1.50563437 17.9570858 9.42988403 25 16.125 C23 17.125 23 17.125 21.07421875 16.6015625 C20.28660156 16.32054687 19.49898437 16.03953125 18.6875 15.75 C14.48872855 14.39300575 10.71753652 13.88587924 6.3125 13.6875 C0.73579682 13.384275 -2.48918586 12.37698229 -7 9.125 C-7.36718454 3.61723191 -7.36718454 3.61723191 -5.73828125 1.43359375 C-3.584413 -0.18785763 -2.66187241 -0.24465739 0 0 Z " transform="translate(604,432.875)" style="fill: rgb(255, 255, 255);"/>
  <path d="M0 0 C6.45046428 2.12957736 12.87297189 4.33224549 19.28515625 6.57421875 C20.22685165 6.90291458 21.16854706 7.23161041 22.13877869 7.57026672 C25.11355875 8.60875479 28.08803407 9.64811258 31.0625 10.6875 C33.09307879 11.39654215 35.12367755 12.10552708 37.15429688 12.81445312 C42.1030957 14.54230752 47.05164537 16.27087393 52 18 C52 18.33 52 18.66 52 19 C34.80640649 18.62622623 16.91825562 17.93953877 3.99609375 4.9921875 C2.59477606 3.38603683 1.28446441 1.70104746 0 0 Z " transform="translate(628,528)" style="fill: rgb(255, 255, 255);"/>
  <path d="M0 0 C5.30456982 0.64490489 7.01045544 2.7502751 10.28515625 6.734375 C17 15.60592255 17 15.60592255 17 20 C13.4178996 20.34115242 11.24363488 20.10938709 7.9375 18.625 C3.0754556 14.28019437 0.2493049 8.89193682 -0.3125 2.375 C-0.209375 1.59125 -0.10625 0.8075 0 0 Z " transform="translate(594,463)" style="fill: rgb(255, 255, 255);"/>
  <path d="M0 0 C3.62393179 1.3494103 6.99941224 3.01536912 10.41772461 4.81811523 C19.95266304 9.80744782 29.42006253 13.57136972 40.25 14.625 C44 15 44 15 46 17 C42.52099751 17.08825361 39.04228883 17.14080635 35.5625 17.1875 C34.58861328 17.21263672 33.61472656 17.23777344 32.61132812 17.26367188 C21.55363612 17.37461862 14.13950191 14.48407386 6 7 C3.86699136 4.73971307 1.93822106 2.43520081 0 0 Z " transform="translate(627,539)" style="fill: rgb(255, 255, 255);"/>
  <path d="M0 0 C8.81008161 3.54539042 8.81008161 3.54539042 11.78515625 6.984375 C-10.20341518 5.65866071 -10.20341518 5.65866071 -17.21484375 0.984375 C-11.59750881 -2.19452591 -6.07021938 -1.91768777 0 0 Z " transform="translate(661.21484375,525.015625)" style="fill: rgb(255, 255, 255);"/>
</svg>
